<svg xmlns="http://www.w3.org/2000/svg" width="24" height="26" viewBox="0 0 24 26">
    <g fill="none" fill-rule="evenodd">
        <g fill="#000" fill-rule="nonzero">
            <g>
                <g>
                    <path d="M19 24c-1.657 0-3-1.343-3-3s1.343-3 3-3 3 1.343 3 3-1.343 3-3 3zM5 16c-1.657 0-3-1.343-3-3 0-1.656 1.343-3 3-3s3 1.344 3 3c0 1.657-1.343 3-3 3zM19 2c1.657 0 3 1.343 3 3s-1.343 3-3 3-3-1.343-3-3 1.343-3 3-3zm0 14c-1.77 0-3.315.925-4.204 2.312l-5.355-3.06c.346-.68.559-1.438.559-2.252 0-.503-.097-.979-.235-1.437l5.571-3.183C16.249 9.37 17.547 10 19 10c2.762 0 5-2.238 5-5s-2.238-5-5-5-5 2.238-5 5c0 .503.097.979.235 1.438L8.664 9.62C7.751 8.631 6.453 8 5 8c-2.762 0-5 2.238-5 5s2.238 5 5 5c1.14 0 2.179-.396 3.02-1.038L8 17l6.055 3.46c-.02.18-.055.354-.055.54 0 2.762 2.238 5 5 5s5-2.238 5-5-2.238-5-5-5z" transform="translate(-163 -129) translate(0 82) translate(151 37) translate(12 10)"/>
                </g>
            </g>
        </g>
    </g>
</svg>
