<svg xmlns="http://www.w3.org/2000/svg" width="13" height="16" viewBox="0 0 13 16">
    <g fill="none" fill-rule="evenodd">
        <g fill="#EF106C" fill-rule="nonzero">
            <g>
                <g>
                    <g>
                        <path d="M13 3h-1v11.5c0 .208-.04.404-.117.586-.078.182-.185.341-.32.476-.136.136-.295.243-.477.32-.182.079-.378.118-.586.118h-8c-.208 0-.404-.04-.586-.117-.182-.078-.341-.185-.476-.32-.136-.136-.243-.295-.32-.477C1.038 14.904 1 14.708 1 14.5V3H0V2h4V1c0-.14.026-.27.078-.39.052-.12.124-.226.215-.317S4.49.13 4.609.078C4.73.026 4.86 0 5 0h3c.14 0 .27.026.39.078.12.052.226.124.317.215s.163.197.215.316C8.974.73 9 .86 9 1v1h4v1zM5 2h3V1H5v1zm6 1H2v11.5c0 .135.05.253.148.352.1.099.217.148.352.148h8c.135 0 .253-.05.352-.148.099-.1.148-.217.148-.352V3zM5 13H4V5h1v8zm2 0H6V5h1v8zm2 0H8V5h1v8z" transform="translate(-745 -291) translate(0 170) translate(735 111) translate(10 10)"/>
                    </g>
                </g>
            </g>
        </g>
    </g>
</svg>
