<svg xmlns="http://www.w3.org/2000/svg" width="22" height="17" viewBox="0 0 22 17">
    <g fill="none" fill-rule="evenodd">
        <g fill="#FFF" fill-rule="nonzero">
            <g>
                <g>
                    <g>
                        <path d="M17.83 7.725l-7.641 8.083-7.642-8.117c-.914-1.125-1.273-1.886-1.273-2.927 0-1.942 1.563-3.689 3.82-3.705 1.857-.014 3.962 1.667 5.095 2.935 1.102-1.223 3.237-2.935 5.094-2.935 2.198 0 3.82 1.763 3.82 3.705 0 1.041-.284 1.858-1.273 2.96zM15.283 0c-2.122 0-3.728 1.104-5.094 2.258C8.888 1.034 7.217 0 5.094 0 2.105 0 0 2.279 0 4.764c0 1.333.616 2.293 1.29 3.195l7.917 8.416c.889.833 1.057.833 1.945 0l7.935-8.416c.794-.902 1.29-1.862 1.29-3.195C20.377 2.279 18.272 0 15.283 0z" transform="translate(-950 -2000) translate(149 1681) translate(781 132) translate(20.377 187)"/>
                    </g>
                </g>
            </g>
        </g>
    </g>
</svg>
