<svg xmlns="http://www.w3.org/2000/svg" width="18" height="17" viewBox="0 0 18 17">
    <g fill="none" fill-rule="evenodd">
        <g fill="#fff">
            <g>
                <g>
                    <path d="M32.327 24.087H20.394l5.22-5.22c.205-.195.32-.464.32-.746s-.115-.552-.32-.746c-.194-.204-.463-.32-.745-.32s-.552.116-.746.32L17.197 24.3c-.428.488-.428 1.217 0 1.705l6.926 6.924c.194.204.464.32.746.32s.551-.116.746-.32c.204-.194.32-.464.32-.746s-.116-.551-.32-.746l-5.221-5.22h11.933c.287.016.567-.091.77-.294.202-.203.31-.483.293-.77.017-.287-.089-.568-.292-.771-.203-.204-.483-.312-.77-.295z" transform="translate(-1256 -3358) translate(0 3069) translate(1240 272) rotate(180 25.134 25.152)"/>
                </g>
            </g>
        </g>
    </g>
</svg>
