<svg xmlns="http://www.w3.org/2000/svg" width="18" height="17" viewBox="0 0 18 17">
    <g fill="none" fill-rule="evenodd">
        <g fill="#fff">
            <g>
                <g>
                    <path d="M32.325 24.087H20.391l5.221-5.22c.205-.195.32-.464.32-.746s-.115-.552-.32-.746c-.194-.204-.464-.32-.745-.32-.282 0-.552.116-.746.32L17.194 24.3c-.427.488-.427 1.217 0 1.705l6.927 6.924c.194.205.464.32.746.32.281 0 .551-.115.745-.32.205-.194.32-.464.32-.746 0-.281-.115-.551-.32-.745l-5.22-5.222h11.933c.286.017.566-.09.77-.293.202-.203.309-.483.292-.77.018-.286-.088-.567-.291-.771-.203-.204-.484-.312-.771-.295z" transform="translate(-1187 -3358) translate(0 3069) translate(1171 272)"/>
                </g>
            </g>
        </g>
    </g>
</svg>
