<svg xmlns="http://www.w3.org/2000/svg" width="40" height="40" viewBox="0 0 40 40">
    <g fill="none" fill-rule="evenodd">
        <g>
            <g>
                <g>
                    <path d="M0 0L40 0 40 40 0 40z" transform="translate(-490 -1056) translate(277 1016) translate(213 40)"/>
                    <path fill="#EF106C" d="M10.534 14.19c7.087 1 12.631-1.583 16.492-7.715.02-.03.037-.062.053-.094 1.486 1.671 2.388 3.873 2.388 6.286v3.466c0 3.504-1.921 6.654-4.9 8.295-.387-.27-.859-.428-1.367-.428-1.325 0-2.4 1.075-2.4 2.4s1.075 2.4 2.4 2.4c.671 0 1.278-.276 1.714-.72-.65 2.039-2.604 3.52-4.914 3.52-2.838 0-5.14-2.235-5.143-4.994l.759-2.08c-3.082-1.611-5.082-4.818-5.082-8.393v-1.942zm.018-2.124C10.862 7.117 14.974 3.2 20 3.2c2.119 0 4.075.696 5.652 1.872-.048.05-.093.106-.132.169-3.475 5.519-8.386 7.785-14.874 6.833-.032-.004-.063-.007-.094-.008zm2.329 15.588C13.404 31.02 16.391 33.6 20 33.6s6.598-2.581 7.12-5.949l3.836.774c1.523.297 2.738 1.45 3.114 2.956l1.107 4.425c.126.505-.256.994-.777.994H5.6c-.52 0-.902-.49-.776-.994l1.105-4.42c.378-1.51 1.597-2.663 3.117-2.956l3.835-.776z" transform="translate(-490 -1056) translate(277 1016) translate(213 40)"/>
                    <path fill="#1565D8" d="M23.2 27.2c.442 0 .8-.358.8-.8 0-.442-.358-.8-.8-.8-.442 0-.8.358-.8.8 0 .442.358.8.8.8zM30.97 11.2h.23c1.325 0 2.4 1.075 2.4 2.4v3.2c0 1.325-1.075 2.4-2.4 2.4h-.565c.283-.982.432-2.012.432-3.067v-3.466c0-.498-.033-.987-.096-1.467zM9.366 19.2H8.8c-1.325 0-2.4-1.075-2.4-2.4v-3.2c0-1.325 1.075-2.4 2.4-2.4h.23c-.063.48-.096.97-.096 1.467v3.466c0 1.055.15 2.085.432 3.067z" opacity=".3" transform="translate(-490 -1056) translate(277 1016) translate(213 40)"/>
                </g>
            </g>
        </g>
    </g>
</svg>
