<svg xmlns="http://www.w3.org/2000/svg" width="40" height="40" viewBox="0 0 40 40">
    <g fill="none" fill-rule="evenodd">
        <g>
            <g>
                <g>
                    <path d="M0 0H40V40H0z" transform="translate(-985 -1056) translate(772 1016) translate(213 40)"/>
                    <path fill="#EF106C" fill-rule="nonzero" d="M15.088 18.535l5.523 5.829c.6.631 1.684.722 2.892.126 3.075-1.275 4.098-1.585 4.682-.97l6.35 6.7c.75.793.55 2.112-.29 2.998-4.358 4.598-11.44 4.598-15.799 0L6.586 20.702c-4.337-4.576-4.337-11.978 0-16.554.856-.904 2.172-1.127 2.951-.305l6.35 6.7c.55.58.255 1.662-.947 4.885-.558 1.258-.469 2.456.148 3.107z" transform="translate(-985 -1056) translate(772 1016) translate(213 40)"/>
                </g>
            </g>
        </g>
    </g>
</svg>
